<svg width="8" height="12" viewBox="0 0 8 12" fill="none" xmlns="http://www.w3.org/2000/svg">
<path d="M3.63398 11.8594V10.6215C3.09609 10.568 2.61562 10.4266 2.19296 10.1965C1.76991 9.9668 1.43866 9.64141 1.19843 9.22031C0.958195 8.79961 0.842179 8.27695 0.850382 7.65313L0.862882 7.62227H2.97499C2.97499 7.95469 3.02421 8.225 3.12265 8.43203C3.22109 8.63945 3.35663 8.79141 3.5289 8.88789C3.70116 8.98438 3.90038 9.03242 4.12616 9.03242C4.31093 9.03242 4.46483 8.99453 4.58788 8.91836C4.71093 8.84258 4.80351 8.73672 4.86484 8.60117C4.92616 8.46562 4.95702 8.30976 4.95702 8.1332C4.95702 7.92383 4.92499 7.74727 4.86171 7.60352C4.79804 7.45976 4.69335 7.33164 4.54765 7.21875C4.40194 7.10586 4.20155 6.99414 3.94726 6.8832C3.30663 6.62891 2.78046 6.37422 2.36757 6.11953C1.95507 5.86523 1.64999 5.56758 1.45312 5.22656C1.25624 4.88594 1.15741 4.45898 1.15741 3.9457C1.15741 3.24766 1.39335 2.67422 1.86562 2.22461C2.33749 1.775 2.96796 1.51328 3.75624 1.43945V0.140234H4.7414V1.47031C5.48046 1.58125 6.0664 1.88516 6.4996 2.38164C6.9328 2.87852 7.14296 3.51289 7.13085 4.28437L7.14921 4.33359H5.01249C5.01249 3.89453 4.92929 3.56914 4.76327 3.35742C4.59687 3.14609 4.38046 3.04023 4.11366 3.04023C3.84687 3.04023 3.63554 3.12656 3.5039 3.29883C3.37265 3.47109 3.30702 3.69492 3.30702 3.96992C3.30702 4.15078 3.33671 4.30781 3.39648 4.44102C3.45585 4.57461 3.55976 4.69648 3.70741 4.80742C3.85507 4.91836 4.05858 5.03125 4.31718 5.14609C4.94921 5.42109 5.47265 5.69023 5.88749 5.95273C6.30195 6.21562 6.61093 6.51641 6.81444 6.85508C7.01796 7.19375 7.11913 7.61563 7.11913 8.1207C7.11913 8.83086 6.89335 9.40351 6.44179 9.83867C5.99023 10.2738 5.38476 10.5305 4.62499 10.6086V11.8586H3.63358L3.63398 11.8594Z" fill="white"/>
</svg>
